<?xml version="1.0" encoding="UTF-8"?>
<!DOCTYPE svg PUBLIC "-//W3C//DTD SVG 1.1//EN" "http://www.w3.org/Graphics/SVG/1.1/DTD/svg11.dtd">
<!-- Creator: CorelDRAW 2019 (64-Bit) -->
<svg xmlns="http://www.w3.org/2000/svg" xml:space="preserve" width="136mm" height="40mm" version="1.1" style="shape-rendering:geometricPrecision; text-rendering:geometricPrecision; image-rendering:optimizeQuality; fill-rule:evenodd; clip-rule:evenodd"
viewBox="0 0 13600 4000"
 xmlns:xlink="http://www.w3.org/1999/xlink"
 xmlns:xodm="http://www.corel.com/coreldraw/odm/2003">
 <defs>
  <style type="text/css">
   <![CDATA[
    .fil1 {fill:#9B9B9A}
    .fil0 {fill:#FFFFFE}
   ]]>
  </style>
 </defs>
 <g id="Capa_x0020_1">
  <metadata id="CorelCorpID_0Corel-Layer"/>
  <path class="fil0" d="M150.68 3661.83c-10.78,-16.18 1022.17,-510.98 2184.62,-1026.72 1140.57,-506.06 2283.06,-1004.87 2809.45,-1200.59 1062.89,-395.23 1212.46,-470.02 2339.46,-737.09 1127,-267.07 2056.39,-315.09 2996.44,-267.05 447.06,22.84 1124.8,136.1 1703.08,364.89 431.19,170.61 1324.6,562.61 1134.71,1171.87 -158.26,507.76 -872.83,977.03 -797.45,829.39 85.43,-167.34 90.82,-521.67 -277.74,-811.86 -622.99,-395.57 -1472.17,-644.86 -2804.15,-643.96 -976.96,0.66 -2013.75,159.14 -2969.74,355.54 -833.07,171.16 -1578.53,377.12 -2475.71,640.19 -1276.86,374.42 -2522.39,858.24 -3842.97,1325.39z"/>
  <path class="fil1" d="M1325.73 3704.56c-8.22,-12.34 514.2,-169.28 1431.98,-484.32 1661.94,-570.5 4519.72,-1233.19 6183.29,-1148.24 341.1,17.4 1140.13,68.21 1587.99,225.03 371.73,130.16 961.16,335.26 780.37,787.37 -120.73,301.98 -719.42,713.46 -661.91,600.82 65.16,-127.67 144.08,-430.1 -137.16,-651.53 -475.37,-301.85 -1187.48,-438.61 -2203.81,-437.97 -1700.07,1.09 -2880.16,183.87 -4533.44,520.76 -1183.78,241.23 -2390.44,567.98 -2447.31,588.08z"/>
 </g>
</svg>
